<svg width="115" height="32" viewBox="0 0 115 32" fill="none" xmlns="http://www.w3.org/2000/svg">
<path d="M23.5118 0C21.789 0 18.6473 1.73802 16.4177 3.27156C15.2016 4.08946 14.7962 4.70287 14.7962 5.21405C14.7962 5.52076 14.8976 5.82748 15.2016 6.33866C15.607 6.95208 15.911 7.25878 16.3164 7.25878C16.6204 7.25878 16.8231 7.05431 17.4312 6.54313C18.9513 5.11182 20.0661 4.19169 21.0796 3.27156C21.3836 2.96485 21.6876 2.76038 21.8903 2.76038C21.9916 2.76038 22.093 2.86261 22.093 2.96485C22.093 3.06709 22.093 3.16933 21.9916 3.27156C20.8769 6.33866 19.7621 9.8147 18.1406 12.984C9.52632 13.4952 0 17.5847 0 23.1054C0 26.6837 2.83763 27.7061 5.57392 27.7061C13.3774 27.7061 18.2419 21.3674 21.7889 13.4952C23.5118 9.40575 25.5387 4.49839 25.5387 2.35143C25.4373 1.32906 25.5387 0 23.5118 0ZM78.8456 7.56549C79.1496 7.76996 79.555 7.97443 79.9603 7.97443C80.9738 7.97443 82.1899 6.23642 82.1899 4.60064C82.1899 3.98722 81.7845 3.6805 81.1765 3.6805C79.7577 3.6805 77.9335 4.60064 77.9335 6.13419C78.0348 6.74761 78.3389 7.15655 78.8456 7.56549ZM104.486 7.76996C104.891 7.97443 105.296 8.07667 105.702 8.07667C106.208 8.07667 106.715 7.8722 106.816 7.36102C107.019 6.84984 107.121 6.33865 107.121 5.9297C107.121 4.60063 106.31 3.6805 105.094 3.6805C104.587 3.6805 104.08 3.88498 103.776 4.29393C103.371 4.80511 103.168 5.21405 103.168 5.72523C103.168 6.54312 103.776 7.36102 104.486 7.76996ZM114.924 16.9713C114.823 16.7668 114.721 16.6645 114.417 16.6645C114.215 16.6645 114.113 16.6645 113.809 16.869C111.377 17.7891 110.465 18.3003 108.742 18.3003C107.121 18.3003 107.222 17.4824 106.816 15.3355L106.107 12.0639C106.006 11.6549 105.904 11.3482 105.499 11.1438C105.296 11.0415 104.688 10.9393 104.283 10.9393C103.269 10.9393 102.965 11.5527 102.459 12.0639C100.128 15.2332 96.3781 18.5048 94.2498 18.5048C93.1351 18.5048 92.831 17.5847 92.831 16.2556C92.831 15.9489 92.831 15.6422 92.831 15.2332C93.0337 13.5974 93.3378 12.5751 94.0472 10.7348C94.4526 10.7348 94.9593 10.7348 95.2633 10.7348C96.1754 10.7348 96.5808 10.5303 96.8848 10.1214C97.1888 9.71246 97.3915 8.6901 97.3915 7.8722C97.3915 7.36102 97.0875 7.15655 96.6821 7.15655C96.2767 7.15655 95.5673 7.25879 95.1619 7.36102C95.466 6.23642 95.5673 5.41853 95.5673 5.00958C95.5673 4.39616 95.162 4.29393 94.5539 4.29393C92.0203 4.29393 92.223 5.00958 91.8176 7.36102L91.7162 7.76996C89.8921 7.97443 87.9665 8.17891 86.2437 8.28114C85.8383 8.28114 85.4329 8.38338 85.1289 8.58786C84.8249 8.79233 84.6222 9.50799 84.6222 9.91693C84.6222 10.5304 85.1289 10.5303 86.1423 10.5303H90.7028C88.8786 13.4952 86.041 17.5847 83.4061 17.5847C81.4805 17.5847 81.3792 15.3355 80.5684 11.5527C80.3657 10.6326 80.0617 10.2236 78.8456 10.2236C78.1362 10.2236 77.7308 10.5303 77.4268 11.1438C76.4133 12.6773 74.0824 16.869 72.9676 17.6869C72.6636 17.8914 72.3596 18.0958 71.9542 18.0958C71.2448 18.0958 70.9407 16.9713 70.9407 14.8243C70.9407 13.1885 71.1434 12.2684 71.1434 11.0415C71.1434 10.2236 70.738 10.2236 69.826 10.3259C69.0152 10.3259 68.5085 10.7348 68.0018 11.4505C67.2924 12.2684 66.5829 13.5974 65.2655 15.2332C64.252 16.5623 62.8332 17.9936 61.4144 17.9936C60.401 17.9936 60.097 17.4824 60.097 16.3578C60.097 14.6198 62.3265 10.8371 62.3265 9.71246C62.3265 9.30352 62.1238 9.20128 61.2117 9.20128C60.0969 9.20128 59.5902 9.20127 59.1848 9.50798C58.6781 9.81469 58.4754 10.4281 57.8674 11.7572C57.2593 13.2907 56.3472 16.3578 56.3472 18.0958C56.4486 20.5495 58.1714 21.2652 59.7929 21.2652C62.3265 21.2652 64.6574 19.7316 66.6843 16.1533C66.887 15.8466 66.887 15.7444 67.0897 15.7444C67.191 15.7444 67.2924 15.8466 67.2924 16.1533V17.1757C67.2924 19.4249 68.7112 20.5495 70.434 20.5495C72.4609 20.5495 73.9811 19.016 77.1227 14.4153C77.3254 14.2109 77.3254 14.1086 77.5281 14.1086C77.6294 14.1086 77.7308 14.2109 77.7308 14.4153C78.6429 18.1981 79.4537 20.0384 82.3926 20.0384C85.3316 20.0384 87.4598 17.6869 89.588 14.8243C89.3853 15.7444 89.3853 16.5623 89.3853 17.278C89.3853 19.6294 90.2974 21.0607 92.223 21.1629C94.8579 21.2652 97.2902 19.5272 99.5197 17.6869C101.547 16.0511 101.851 15.4377 102.864 14.5176C103.067 14.3131 103.168 14.2109 103.371 14.2109C103.573 14.2109 103.573 14.4153 103.573 14.5176L104.283 17.7891C104.486 18.8115 104.79 19.6294 105.195 20.2428C105.6 20.8562 106.614 21.1629 107.729 21.1629C109.755 21.1629 111.782 19.7316 114.215 17.9936C114.721 17.5847 114.924 17.4824 114.924 17.278C115.025 17.1757 115.025 17.0735 114.924 16.9713ZM53.3069 12.0639C52.5975 12.0639 51.6854 12.3706 50.672 13.393C47.733 16.1534 46.0101 17.3802 44.0846 17.3802C42.8685 17.3802 42.0577 16.7668 42.0577 15.6422C42.0577 12.984 45.3007 10.5303 48.8478 10.5303C49.8612 10.5303 50.4693 10.7348 50.976 10.8371C51.3814 10.9393 51.6854 11.1438 51.9894 11.1438C52.4962 11.1438 52.9015 10.7348 53.2056 9.81469C53.3069 9.61022 53.4083 9.20127 53.4083 8.9968C53.4083 8.28114 52.8002 7.46326 49.4558 7.56549C44.6927 7.56549 41.551 11.0415 38.8147 14.0064C36.1798 16.869 33.2408 18.8115 30.6059 19.016C29.1871 19.1182 28.275 18.607 27.9709 16.869C32.4301 15.5399 36.0784 13.6997 36.0784 11.0415C36.0784 9.50798 35.065 8.28114 32.9368 8.28114C29.5924 8.28114 24.3225 12.7795 24.3225 17.0735C24.3225 19.9361 26.0454 21.5719 28.883 21.5719C31.9233 21.5719 35.369 19.5272 38.9161 16.2556C38.9161 18.7093 40.0309 20.2428 42.3618 20.2428C44.5913 20.2428 46.3142 19.016 48.3411 17.0735C48.6451 16.7668 48.8478 16.5623 49.0504 16.5623C49.1518 16.5623 49.2532 16.5623 49.2532 16.7668C49.2532 16.9712 49.1518 17.1757 48.9491 17.4824C48.7464 17.8914 43.8819 27.6038 43.2739 28.9329C42.9698 29.5463 42.8685 30.0575 42.8685 30.4665C42.8685 31.1821 43.1725 31.4888 43.7806 31.7955C43.9833 31.8978 44.2873 32 44.6927 32C44.8954 32 45.0981 31.8978 45.4021 31.7955C46.0102 31.3866 46.7195 30.262 47.6316 28.524C49.5572 24.639 52.6988 17.3802 53.7123 15.2332C53.915 14.722 54.7257 13.1885 54.7257 12.5751C54.3203 12.2684 53.8136 12.0639 53.3069 12.0639ZM32.126 11.0415C33.0381 11.0415 33.2408 11.3482 33.2408 11.9617C33.2408 13.0863 31.1126 14.6198 27.7682 15.7444C27.7682 13.5974 29.8965 11.1438 32.126 11.0415ZM9.32365 24.7412C8.41156 25.1502 7.39811 25.4569 6.6887 25.4569C5.16855 25.4569 4.05376 24.639 4.05376 22.5943C4.05376 17.9936 10.9451 15.4377 17.3298 14.8243C14.5935 20.0383 12.4653 23.2077 9.32365 24.7412Z" fill="#7A206C"/>
</svg>
